<svg width="16" height="16" viewBox="0 0 16 16" fill="none" xmlns="http://www.w3.org/2000/svg">
<g clip-path="url(#clip0_52_171)">
<path d="M11.96 11.96C10.8204 12.8286 9.4327 13.3099 7.99996 13.3333C3.33329 13.3333 0.666626 7.99996 0.666626 7.99996C1.49589 6.45456 2.64605 5.10436 4.03996 4.03996M6.59996 2.82663C7.05885 2.71921 7.52867 2.66552 7.99996 2.66663C12.6666 2.66663 15.3333 7.99996 15.3333 7.99996C14.9286 8.75703 14.446 9.46978 13.8933 10.1266M9.41329 9.41329C9.23019 9.60979 9.00939 9.7674 8.76406 9.87671C8.51873 9.98602 8.25389 10.0448 7.98535 10.0495C7.71681 10.0543 7.45007 10.0049 7.20103 9.90429C6.952 9.8037 6.72577 9.65398 6.53586 9.46406C6.34594 9.27414 6.19622 9.04792 6.09563 8.79889C5.99504 8.54985 5.94564 8.28311 5.95038 8.01457C5.95512 7.74602 6.0139 7.48119 6.12321 7.23586C6.23252 6.99053 6.39013 6.76972 6.58663 6.58663M0.666626 0.666626L15.3333 15.3333" stroke="#1E1E1E" stroke-width="1.6" stroke-linecap="round" stroke-linejoin="round"/>
</g>
<defs>
<clipPath id="clip0_52_171">
<rect width="16" height="16" fill="white"/>
</clipPath>
</defs>
</svg>
